<?xml version="1.0" encoding="UTF-8"?><svg xmlns="http://www.w3.org/2000/svg" xmlns:xlink="http://www.w3.org/1999/xlink" fill-opacity="1" color-rendering="auto" color-interpolation="auto" text-rendering="auto" stroke="black" stroke-linecap="square" width="1322" stroke-miterlimit="10" shape-rendering="auto" stroke-opacity="1" fill="black" stroke-dasharray="none" font-weight="normal" stroke-width="1" height="801" font-family="'Dialog'" font-style="normal" stroke-linejoin="miter" font-size="12px" stroke-dashoffset="0" image-rendering="auto">
  <!--Generated by ySVG 2.5-->
  <defs id="genericDefs"/>
  <g>
    <defs id="defs1">
      <clipPath clipPathUnits="userSpaceOnUse" id="clipPath1">
        <path d="M0 0 L1322 0 L1322 801 L0 801 L0 0 Z"/>
      </clipPath>
      <clipPath clipPathUnits="userSpaceOnUse" id="clipPath2">
        <path d="M-149 -182 L1173 -182 L1173 619 L-149 619 L-149 -182 Z"/>
      </clipPath>
    </defs>
    <g fill="white" text-rendering="geometricPrecision" shape-rendering="geometricPrecision" transform="translate(149,182)" stroke="white">
      <rect x="-149" width="1322" height="801" y="-182" clip-path="url(#clipPath2)" stroke="none"/>
    </g>
    <g fill="rgb(255,204,0)" text-rendering="geometricPrecision" shape-rendering="geometricPrecision" transform="matrix(1,0,0,1,149,182)" stroke="rgb(255,204,0)">
      <rect x="560.9792" width="190.9375" height="58.125" y="-122.0313" clip-path="url(#clipPath2)" stroke="none"/>
    </g>
    <g text-rendering="geometricPrecision" stroke-miterlimit="1.45" shape-rendering="geometricPrecision" transform="matrix(1,0,0,1,149,182)" stroke-linecap="butt">
      <rect fill="none" x="560.9792" width="190.9375" height="58.125" y="-122.0313" clip-path="url(#clipPath2)"/>
      <text x="576.9245" xml:space="preserve" y="-88.4336" clip-path="url(#clipPath2)" font-family="sans-serif" stroke="none">ComputationalEnvironment</text>
    </g>
    <g fill="rgb(255,204,0)" text-rendering="geometricPrecision" shape-rendering="geometricPrecision" transform="matrix(1,0,0,1,149,182)" stroke="rgb(255,204,0)">
      <rect x="560.9792" width="190.9375" height="58.125" y="23.4792" clip-path="url(#clipPath2)" stroke="none"/>
    </g>
    <g text-rendering="geometricPrecision" stroke-miterlimit="1.45" shape-rendering="geometricPrecision" transform="matrix(1,0,0,1,149,182)" stroke-linecap="butt">
      <rect fill="none" x="560.9792" width="190.9375" height="58.125" y="23.4792" clip-path="url(#clipPath2)"/>
      <text x="622.5134" xml:space="preserve" y="57.0768" clip-path="url(#clipPath2)" font-family="sans-serif" stroke="none">Component</text>
    </g>
    <g fill="rgb(255,204,0)" text-rendering="geometricPrecision" shape-rendering="geometricPrecision" transform="matrix(1,0,0,1,149,182)" stroke="rgb(255,204,0)">
      <rect x="42.4128" width="190.9375" height="58.125" y="-64.1839" clip-path="url(#clipPath2)" stroke="none"/>
    </g>
    <g text-rendering="geometricPrecision" stroke-miterlimit="1.45" shape-rendering="geometricPrecision" transform="matrix(1,0,0,1,149,182)" stroke-linecap="butt">
      <rect fill="none" x="42.4128" width="190.9375" height="58.125" y="-64.1839" clip-path="url(#clipPath2)"/>
      <text x="109.3991" xml:space="preserve" y="-30.5862" clip-path="url(#clipPath2)" font-family="sans-serif" stroke="none">IO_Device</text>
    </g>
    <g fill="rgb(255,204,0)" text-rendering="geometricPrecision" shape-rendering="geometricPrecision" transform="matrix(1,0,0,1,149,182)" stroke="rgb(255,204,0)">
      <rect x="10.5066" width="190.9375" height="58.125" y="155.5566" clip-path="url(#clipPath2)" stroke="none"/>
    </g>
    <g text-rendering="geometricPrecision" stroke-miterlimit="1.45" shape-rendering="geometricPrecision" transform="matrix(1,0,0,1,149,182)" stroke-linecap="butt">
      <rect fill="none" x="10.5066" width="190.9375" height="58.125" y="155.5566" clip-path="url(#clipPath2)"/>
      <text x="77.8445" xml:space="preserve" y="189.1543" clip-path="url(#clipPath2)" font-family="sans-serif" stroke="none">Processor</text>
    </g>
    <g fill="rgb(255,204,0)" text-rendering="geometricPrecision" shape-rendering="geometricPrecision" transform="matrix(1,0,0,1,149,182)" stroke="rgb(255,204,0)">
      <rect x="289.96" width="190.9375" height="58.125" y="155.5566" clip-path="url(#clipPath2)" stroke="none"/>
    </g>
    <g text-rendering="geometricPrecision" stroke-miterlimit="1.45" shape-rendering="geometricPrecision" transform="matrix(1,0,0,1,149,182)" stroke-linecap="butt">
      <rect fill="none" x="289.96" width="190.9375" height="58.125" y="155.5566" clip-path="url(#clipPath2)"/>
      <text x="357.7402" xml:space="preserve" y="189.1543" clip-path="url(#clipPath2)" font-family="sans-serif" stroke="none">Hardware</text>
    </g>
    <g fill="rgb(255,204,0)" text-rendering="geometricPrecision" shape-rendering="geometricPrecision" transform="matrix(1,0,0,1,149,182)" stroke="rgb(255,204,0)">
      <rect x="147.5586" width="190.9375" height="58.125" y="338.5924" clip-path="url(#clipPath2)" stroke="none"/>
    </g>
    <g text-rendering="geometricPrecision" stroke-miterlimit="1.45" shape-rendering="geometricPrecision" transform="matrix(1,0,0,1,149,182)" stroke-linecap="butt">
      <rect fill="none" x="147.5586" width="190.9375" height="58.125" y="338.5924" clip-path="url(#clipPath2)"/>
      <text x="219.6396" xml:space="preserve" y="372.1901" clip-path="url(#clipPath2)" font-family="sans-serif" stroke="none">Memory</text>
    </g>
    <g fill="rgb(255,204,0)" text-rendering="geometricPrecision" shape-rendering="geometricPrecision" transform="matrix(1,0,0,1,149,182)" stroke="rgb(255,204,0)">
      <rect x="370.0417" width="190.9375" height="58.125" y="338.5924" clip-path="url(#clipPath2)" stroke="none"/>
    </g>
    <g text-rendering="geometricPrecision" stroke-miterlimit="1.45" shape-rendering="geometricPrecision" transform="matrix(1,0,0,1,149,182)" stroke-linecap="butt">
      <rect fill="none" x="370.0417" width="190.9375" height="58.125" y="338.5924" clip-path="url(#clipPath2)"/>
      <text x="452.7165" xml:space="preserve" y="372.1901" clip-path="url(#clipPath2)" font-family="sans-serif" stroke="none">Disk</text>
    </g>
    <g fill="rgb(255,204,0)" text-rendering="geometricPrecision" shape-rendering="geometricPrecision" transform="matrix(1,0,0,1,149,182)" stroke="rgb(255,204,0)">
      <rect x="560.9792" width="190.9375" height="58.125" y="216.1771" clip-path="url(#clipPath2)" stroke="none"/>
    </g>
    <g text-rendering="geometricPrecision" stroke-miterlimit="1.45" shape-rendering="geometricPrecision" transform="matrix(1,0,0,1,149,182)" stroke-linecap="butt">
      <rect fill="none" x="560.9792" width="190.9375" height="58.125" y="216.1771" clip-path="url(#clipPath2)"/>
      <text x="606.8425" xml:space="preserve" y="249.7747" clip-path="url(#clipPath2)" font-family="sans-serif" stroke="none">OperatingSystem</text>
    </g>
    <g fill="rgb(255,204,0)" text-rendering="geometricPrecision" shape-rendering="geometricPrecision" transform="matrix(1,0,0,1,149,182)" stroke="rgb(255,204,0)">
      <rect x="513.1922" width="190.9375" height="58.125" y="438.0354" clip-path="url(#clipPath2)" stroke="none"/>
    </g>
    <g text-rendering="geometricPrecision" stroke-miterlimit="1.45" shape-rendering="geometricPrecision" transform="matrix(1,0,0,1,149,182)" stroke-linecap="butt">
      <rect fill="none" x="513.1922" width="190.9375" height="58.125" y="438.0354" clip-path="url(#clipPath2)"/>
      <text x="574.0526" xml:space="preserve" y="471.6331" clip-path="url(#clipPath2)" font-family="sans-serif" stroke="none">Distribution</text>
    </g>
    <g fill="rgb(255,204,0)" text-rendering="geometricPrecision" shape-rendering="geometricPrecision" transform="matrix(1,0,0,1,149,182)" stroke="rgb(255,204,0)">
      <rect x="958.1745" width="190.9375" height="58.125" y="271.2578" clip-path="url(#clipPath2)" stroke="none"/>
    </g>
    <g text-rendering="geometricPrecision" stroke-miterlimit="1.45" shape-rendering="geometricPrecision" transform="matrix(1,0,0,1,149,182)" stroke-linecap="butt">
      <rect fill="none" x="958.1745" width="190.9375" height="58.125" y="271.2578" clip-path="url(#clipPath2)"/>
      <text x="993.4587" xml:space="preserve" y="304.8555" clip-path="url(#clipPath2)" font-family="sans-serif" stroke="none">EnvironmentVariable</text>
    </g>
    <g fill="rgb(255,204,0)" text-rendering="geometricPrecision" shape-rendering="geometricPrecision" transform="matrix(1,0,0,1,149,182)" stroke="rgb(255,204,0)">
      <rect x="772.6209" width="190.9375" height="58.125" y="145.7214" clip-path="url(#clipPath2)" stroke="none"/>
    </g>
    <g text-rendering="geometricPrecision" stroke-miterlimit="1.45" shape-rendering="geometricPrecision" transform="matrix(1,0,0,1,149,182)" stroke-linecap="butt">
      <rect fill="none" x="772.6209" width="190.9375" height="58.125" y="145.7214" clip-path="url(#clipPath2)"/>
      <text x="803.8387" xml:space="preserve" y="179.319" clip-path="url(#clipPath2)" font-family="sans-serif" stroke="none">OS_Shell_Environment</text>
    </g>
    <g fill="rgb(255,204,0)" text-rendering="geometricPrecision" shape-rendering="geometricPrecision" transform="matrix(1,0,0,1,149,182)" stroke="rgb(255,204,0)">
      <rect x="881.8229" width="190.9375" height="58.125" y="-44.6667" clip-path="url(#clipPath2)" stroke="none"/>
    </g>
    <g text-rendering="geometricPrecision" stroke-miterlimit="1.45" shape-rendering="geometricPrecision" transform="matrix(1,0,0,1,149,182)" stroke-linecap="butt">
      <rect fill="none" x="881.8229" width="190.9375" height="58.125" y="-44.6667" clip-path="url(#clipPath2)"/>
      <text x="952.1901" xml:space="preserve" y="-11.069" clip-path="url(#clipPath2)" font-family="sans-serif" stroke="none">Software</text>
    </g>
    <g fill="rgb(255,204,0)" text-rendering="geometricPrecision" shape-rendering="geometricPrecision" transform="matrix(1,0,0,1,149,182)" stroke="rgb(255,204,0)">
      <rect x="289.96" width="190.9375" height="58.125" y="-27.4792" clip-path="url(#clipPath2)" stroke="none"/>
    </g>
    <g text-rendering="geometricPrecision" stroke-miterlimit="1.45" shape-rendering="geometricPrecision" transform="matrix(1,0,0,1,149,182)" stroke-linecap="butt">
      <rect fill="none" x="289.96" width="190.9375" height="58.125" y="-27.4792" clip-path="url(#clipPath2)"/>
      <text x="335.709" xml:space="preserve" y="6.1185" clip-path="url(#clipPath2)" font-family="sans-serif" stroke="none">NetworkInterface</text>
    </g>
    <g fill="rgb(51,204,204)" text-rendering="geometricPrecision" shape-rendering="geometricPrecision" transform="matrix(1,0,0,1,149,182)" stroke="rgb(51,204,204)">
      <rect x="349.5954" y="-122.0313" clip-path="url(#clipPath2)" width="71.6667" rx="4" ry="4" height="27.3958" stroke="none"/>
    </g>
    <g text-rendering="geometricPrecision" stroke-miterlimit="1.45" shape-rendering="geometricPrecision" transform="matrix(1,0,0,1,149,182)" stroke-linecap="butt">
      <rect x="349.5954" y="-122.0313" clip-path="url(#clipPath2)" fill="none" width="71.6667" rx="4" ry="4" height="27.3958"/>
      <text x="368.4717" xml:space="preserve" y="-103.7982" clip-path="url(#clipPath2)" font-family="sans-serif" stroke="none">string</text>
    </g>
    <g fill="rgb(51,204,204)" text-rendering="geometricPrecision" shape-rendering="geometricPrecision" transform="matrix(1,0,0,1,149,182)" stroke="rgb(51,204,204)">
      <rect x="721.8425" y="510.0825" clip-path="url(#clipPath2)" width="71.6667" rx="4" ry="4" height="27.3958" stroke="none"/>
    </g>
    <g text-rendering="geometricPrecision" stroke-miterlimit="1.45" shape-rendering="geometricPrecision" transform="matrix(1,0,0,1,149,182)" stroke-linecap="butt">
      <rect x="721.8425" y="510.0825" clip-path="url(#clipPath2)" fill="none" width="71.6667" rx="4" ry="4" height="27.3958"/>
      <text x="740.7188" xml:space="preserve" y="528.3156" clip-path="url(#clipPath2)" font-family="sans-serif" stroke="none">string</text>
    </g>
    <g fill="rgb(255,204,0)" text-rendering="geometricPrecision" shape-rendering="geometricPrecision" transform="matrix(1,0,0,1,149,182)" stroke="rgb(255,204,0)">
      <rect x="230.8281" width="190.9375" height="58.125" y="455.6562" clip-path="url(#clipPath2)" stroke="none"/>
    </g>
    <g text-rendering="geometricPrecision" stroke-miterlimit="1.45" shape-rendering="geometricPrecision" transform="matrix(1,0,0,1,149,182)" stroke-linecap="butt">
      <rect fill="none" x="230.8281" width="190.9375" height="58.125" y="455.6562" clip-path="url(#clipPath2)"/>
      <text x="303.1787" xml:space="preserve" y="489.2539" clip-path="url(#clipPath2)" font-family="sans-serif" stroke="none">Amount</text>
    </g>
    <g fill="rgb(51,204,204)" text-rendering="geometricPrecision" shape-rendering="geometricPrecision" transform="matrix(1,0,0,1,149,182)" stroke="rgb(51,204,204)">
      <rect x="210.6302" y="575.8229" clip-path="url(#clipPath2)" width="71.6667" rx="4" ry="4" height="27.3958" stroke="none"/>
    </g>
    <g text-rendering="geometricPrecision" stroke-miterlimit="1.45" shape-rendering="geometricPrecision" transform="matrix(1,0,0,1,149,182)" stroke-linecap="butt">
      <rect x="210.6302" y="575.8229" clip-path="url(#clipPath2)" fill="none" width="71.6667" rx="4" ry="4" height="27.3958"/>
      <text x="226.4245" xml:space="preserve" y="594.056" clip-path="url(#clipPath2)" font-family="sans-serif" stroke="none">double</text>
    </g>
    <g fill="rgb(51,204,204)" text-rendering="geometricPrecision" shape-rendering="geometricPrecision" transform="matrix(1,0,0,1,149,182)" stroke="rgb(51,204,204)">
      <rect x="359.1406" y="575.8229" clip-path="url(#clipPath2)" width="71.6667" rx="4" ry="4" height="27.3958" stroke="none"/>
    </g>
    <g text-rendering="geometricPrecision" stroke-miterlimit="1.45" shape-rendering="geometricPrecision" transform="matrix(1,0,0,1,149,182)" stroke-linecap="butt">
      <rect x="359.1406" y="575.8229" clip-path="url(#clipPath2)" fill="none" width="71.6667" rx="4" ry="4" height="27.3958"/>
      <text x="378.0169" xml:space="preserve" y="594.056" clip-path="url(#clipPath2)" font-family="sans-serif" stroke="none">string</text>
    </g>
    <g fill="rgb(204,153,255)" text-rendering="geometricPrecision" shape-rendering="geometricPrecision" transform="matrix(1,0,0,1,149,182)" stroke="rgb(204,153,255)">
      <rect x="-86.1429" width="96.4062" height="45.625" y="455.6562" clip-path="url(#clipPath2)" stroke="none"/>
    </g>
    <g text-rendering="geometricPrecision" stroke-miterlimit="1.45" stroke-dasharray="6,2" shape-rendering="geometricPrecision" transform="matrix(1,0,0,1,149,182)" stroke-linecap="butt">
      <rect fill="none" x="-86.1429" width="96.4062" height="45.625" y="455.6562" clip-path="url(#clipPath2)"/>
      <text x="-79.1956" y="483.0039" clip-path="url(#clipPath2)" font-family="sans-serif" stroke-dasharray="none" stroke="none" xml:space="preserve">Processors.txt</text>
    </g>
    <g fill="rgb(51,204,204)" text-rendering="geometricPrecision" shape-rendering="geometricPrecision" transform="matrix(1,0,0,1,149,182)" stroke="rgb(51,204,204)">
      <rect x="169.2289" y="264.6354" clip-path="url(#clipPath2)" width="71.6667" rx="4" ry="4" height="27.3958" stroke="none"/>
    </g>
    <g text-rendering="geometricPrecision" stroke-miterlimit="1.45" shape-rendering="geometricPrecision" transform="matrix(1,0,0,1,149,182)" stroke-linecap="butt">
      <rect x="169.2289" y="264.6354" clip-path="url(#clipPath2)" fill="none" width="71.6667" rx="4" ry="4" height="27.3958"/>
      <text x="197.3601" xml:space="preserve" y="282.8685" clip-path="url(#clipPath2)" font-family="sans-serif" stroke="none">int</text>
    </g>
    <g fill="rgb(51,204,204)" text-rendering="geometricPrecision" shape-rendering="geometricPrecision" transform="matrix(1,0,0,1,149,182)" stroke="rgb(51,204,204)">
      <rect x="912.78" y="386.0887" clip-path="url(#clipPath2)" width="71.6667" rx="4" ry="4" height="27.3958" stroke="none"/>
    </g>
    <g text-rendering="geometricPrecision" stroke-miterlimit="1.45" shape-rendering="geometricPrecision" transform="matrix(1,0,0,1,149,182)" stroke-linecap="butt">
      <rect x="912.78" y="386.0887" clip-path="url(#clipPath2)" fill="none" width="71.6667" rx="4" ry="4" height="27.3958"/>
      <text x="931.6563" xml:space="preserve" y="404.3218" clip-path="url(#clipPath2)" font-family="sans-serif" stroke="none">string</text>
    </g>
    <g fill="rgb(51,204,204)" text-rendering="geometricPrecision" shape-rendering="geometricPrecision" transform="matrix(1,0,0,1,149,182)" stroke="rgb(51,204,204)">
      <rect x="1085.7575" y="386.0887" clip-path="url(#clipPath2)" width="71.6667" rx="4" ry="4" height="27.3958" stroke="none"/>
    </g>
    <g text-rendering="geometricPrecision" stroke-miterlimit="1.45" shape-rendering="geometricPrecision" transform="matrix(1,0,0,1,149,182)" stroke-linecap="butt">
      <rect x="1085.7575" y="386.0887" clip-path="url(#clipPath2)" fill="none" width="71.6667" rx="4" ry="4" height="27.3958"/>
      <text x="1104.6338" xml:space="preserve" y="404.3218" clip-path="url(#clipPath2)" font-family="sans-serif" stroke="none">string</text>
    </g>
    <g fill="rgb(204,153,255)" text-rendering="geometricPrecision" shape-rendering="geometricPrecision" transform="matrix(1,0,0,1,149,182)" stroke="rgb(204,153,255)">
      <rect x="546.6232" width="124.0755" height="45.625" y="543.2708" clip-path="url(#clipPath2)" stroke="none"/>
    </g>
    <g text-rendering="geometricPrecision" stroke-miterlimit="1.45" stroke-dasharray="6,2" shape-rendering="geometricPrecision" transform="matrix(1,0,0,1,149,182)" stroke-linecap="butt">
      <rect fill="none" x="546.6232" width="124.0755" height="45.625" y="543.2708" clip-path="url(#clipPath2)"/>
      <text x="577.8641" y="570.6185" clip-path="url(#clipPath2)" font-family="sans-serif" stroke-dasharray="none" stroke="none" xml:space="preserve">Distros.txt</text>
    </g>
    <g fill="rgb(51,204,204)" text-rendering="geometricPrecision" shape-rendering="geometricPrecision" transform="matrix(1,0,0,1,149,182)" stroke="rgb(51,204,204)">
      <rect x="850.4063" y="70.6562" clip-path="url(#clipPath2)" width="71.6667" rx="4" ry="4" height="27.3958" stroke="none"/>
    </g>
    <g text-rendering="geometricPrecision" stroke-miterlimit="1.45" shape-rendering="geometricPrecision" transform="matrix(1,0,0,1,149,182)" stroke-linecap="butt">
      <rect x="850.4063" y="70.6562" clip-path="url(#clipPath2)" fill="none" width="71.6667" rx="4" ry="4" height="27.3958"/>
      <text x="869.2825" xml:space="preserve" y="88.8893" clip-path="url(#clipPath2)" font-family="sans-serif" stroke="none">string</text>
    </g>
    <g fill="rgb(51,204,204)" text-rendering="geometricPrecision" shape-rendering="geometricPrecision" transform="matrix(1,0,0,1,149,182)" stroke="rgb(51,204,204)">
      <rect x="1017.8099" y="70.6562" clip-path="url(#clipPath2)" width="71.6667" rx="4" ry="4" height="27.3958" stroke="none"/>
    </g>
    <g text-rendering="geometricPrecision" stroke-miterlimit="1.45" shape-rendering="geometricPrecision" transform="matrix(1,0,0,1,149,182)" stroke-linecap="butt">
      <rect x="1017.8099" y="70.6562" clip-path="url(#clipPath2)" fill="none" width="71.6667" rx="4" ry="4" height="27.3958"/>
      <text x="1036.6862" xml:space="preserve" y="88.8893" clip-path="url(#clipPath2)" font-family="sans-serif" stroke="none">string</text>
    </g>
    <g fill="rgb(255,204,0)" text-rendering="geometricPrecision" shape-rendering="geometricPrecision" transform="matrix(1,0,0,1,149,182)" stroke="rgb(255,204,0)">
      <rect x="881.8229" width="190.9375" height="58.125" y="-166.1875" clip-path="url(#clipPath2)" stroke="none"/>
    </g>
    <g text-rendering="geometricPrecision" stroke-miterlimit="1.45" stroke-dasharray="6,2" shape-rendering="geometricPrecision" transform="matrix(1,0,0,1,149,182)" stroke-linecap="butt">
      <rect fill="none" x="881.8229" width="190.9375" height="58.125" y="-166.1875" clip-path="url(#clipPath2)"/>
      <text x="952.6325" y="-132.5898" clip-path="url(#clipPath2)" font-family="sans-serif" stroke-dasharray="none" stroke="none" xml:space="preserve">Location</text>
    </g>
    <g fill="rgb(255,204,0)" text-rendering="geometricPrecision" shape-rendering="geometricPrecision" transform="matrix(1,0,0,1,149,182)" stroke="rgb(255,204,0)">
      <rect x="-133.4085" width="190.9375" height="58.125" y="338.5924" clip-path="url(#clipPath2)" stroke="none"/>
    </g>
    <g text-rendering="geometricPrecision" stroke-miterlimit="1.45" shape-rendering="geometricPrecision" transform="matrix(1,0,0,1,149,182)" stroke-linecap="butt">
      <rect fill="none" x="-133.4085" width="190.9375" height="58.125" y="338.5924" clip-path="url(#clipPath2)"/>
      <text x="-80.1185" xml:space="preserve" y="372.1901" clip-path="url(#clipPath2)" font-family="sans-serif" stroke="none">ProcessorType</text>
    </g>
    <g fill="rgb(255,204,0)" text-rendering="geometricPrecision" shape-rendering="geometricPrecision" transform="matrix(1,0,0,1,149,182)" stroke="rgb(255,204,0)">
      <rect x="-124.1652" width="190.9375" height="58.125" y="39.9271" clip-path="url(#clipPath2)" stroke="none"/>
    </g>
    <g text-rendering="geometricPrecision" stroke-miterlimit="1.45" shape-rendering="geometricPrecision" transform="matrix(1,0,0,1,149,182)" stroke-linecap="butt">
      <rect fill="none" x="-124.1652" width="190.9375" height="58.125" y="39.9271" clip-path="url(#clipPath2)"/>
      <text x="-92.379" xml:space="preserve" y="73.5247" clip-path="url(#clipPath2)" font-family="sans-serif" stroke="none">ProcessorArchitecture</text>
    </g>
    <g fill="rgb(204,153,255)" text-rendering="geometricPrecision" shape-rendering="geometricPrecision" transform="matrix(1,0,0,1,149,182)" stroke="rgb(204,153,255)">
      <rect x="-132.7993" width="113.3059" height="45.625" y="161.8066" clip-path="url(#clipPath2)" stroke="none"/>
    </g>
    <g text-rendering="geometricPrecision" stroke-miterlimit="1.45" stroke-dasharray="6,2" shape-rendering="geometricPrecision" transform="matrix(1,0,0,1,149,182)" stroke-linecap="butt">
      <rect fill="none" x="-132.7993" width="113.3059" height="45.625" y="161.8066" clip-path="url(#clipPath2)"/>
      <text x="-124.8231" y="189.1543" clip-path="url(#clipPath2)" font-family="sans-serif" stroke-dasharray="none" stroke="none" xml:space="preserve">Architectures.txt</text>
    </g>
    <g fill="rgb(255,204,0)" text-rendering="geometricPrecision" shape-rendering="geometricPrecision" transform="matrix(1,0,0,1,149,182)" stroke="rgb(255,204,0)">
      <rect x="793.5092" width="190.9375" height="58.125" y="438.0354" clip-path="url(#clipPath2)" stroke="none"/>
    </g>
    <g text-rendering="geometricPrecision" stroke-miterlimit="1.45" shape-rendering="geometricPrecision" transform="matrix(1,0,0,1,149,182)" stroke-linecap="butt">
      <rect fill="none" x="793.5092" width="190.9375" height="58.125" y="438.0354" clip-path="url(#clipPath2)"/>
      <text x="870.4623" xml:space="preserve" y="471.6331" clip-path="url(#clipPath2)" font-family="sans-serif" stroke="none">Kernel</text>
    </g>
    <g fill="rgb(204,153,255)" text-rendering="geometricPrecision" shape-rendering="geometricPrecision" transform="matrix(1,0,0,1,149,182)" stroke="rgb(204,153,255)">
      <rect x="826.9402" width="124.0755" height="45.625" y="537.4784" clip-path="url(#clipPath2)" stroke="none"/>
    </g>
    <g text-rendering="geometricPrecision" stroke-miterlimit="1.45" stroke-dasharray="6,2" shape-rendering="geometricPrecision" transform="matrix(1,0,0,1,149,182)" stroke-linecap="butt">
      <rect fill="none" x="826.9402" width="124.0755" height="45.625" y="537.4784" clip-path="url(#clipPath2)"/>
      <text x="857.3373" y="564.826" clip-path="url(#clipPath2)" font-family="sans-serif" stroke-dasharray="none" stroke="none" xml:space="preserve">Kernels.txt</text>
    </g>
    <g fill="rgb(51,204,204)" text-rendering="geometricPrecision" shape-rendering="geometricPrecision" transform="matrix(1,0,0,1,149,182)" stroke="rgb(51,204,204)">
      <rect x="832.2563" y="328.6929" clip-path="url(#clipPath2)" width="71.6667" rx="4" ry="4" height="27.3958" stroke="none"/>
    </g>
    <g text-rendering="geometricPrecision" stroke-miterlimit="1.45" shape-rendering="geometricPrecision" transform="matrix(1,0,0,1,149,182)" stroke-linecap="butt">
      <rect x="832.2563" y="328.6929" clip-path="url(#clipPath2)" fill="none" width="71.6667" rx="4" ry="4" height="27.3958"/>
      <text x="851.1326" xml:space="preserve" y="346.9259" clip-path="url(#clipPath2)" font-family="sans-serif" stroke="none">string</text>
      <path fill="none" d="M656.4479 -63.9062 L656.4479 15.4792" clip-path="url(#clipPath2)"/>
      <path d="M656.4479 23.4792 L661.4479 11.4792 L656.4479 14.4792 L651.4479 11.4792 Z" clip-path="url(#clipPath2)" stroke="none"/>
      <rect x="610.4176" y="-29.2799" clip-path="url(#clipPath2)" fill="white" width="92.0605" height="18.1328" stroke="none"/>
      <text x="612.4177" xml:space="preserve" y="-15.6784" clip-path="url(#clipPath2)" font-family="sans-serif" stroke="none">hasComponent</text>
    </g>
    <g text-rendering="geometricPrecision" stroke-miterlimit="1.45" shape-rendering="geometricPrecision" transform="matrix(1,0,0,1,149,182)" stroke-linecap="butt">
      <path fill="none" d="M171.617 -7.1811 L169.6263 -4.9367 L342.6062 148.6126 L342.6062 148.6126 L337.3215 150.273 L352.6886 155.5566 L345.6197 140.9247 L344.5978 146.369 L171.617 -7.1811 Z" clip-path="url(#clipPath2)"/>
    </g>
    <g text-rendering="geometricPrecision" stroke-miterlimit="1.45" shape-rendering="geometricPrecision" transform="matrix(1,0,0,1,149,182)" stroke-linecap="butt">
      <path fill="none" d="M274.96 178.3691 L277.81 183.1191 L201.4441 183.1191 L201.4441 186.1191 L277.81 186.1191 L274.96 190.8691 L289.96 184.6191 L274.96 178.3691 Z" clip-path="url(#clipPath2)"/>
    </g>
    <g text-rendering="geometricPrecision" stroke-miterlimit="1.45" shape-rendering="geometricPrecision" transform="matrix(1,0,0,1,149,182)" stroke-linecap="butt">
      <path fill="none" d="M596.8125 81.6042 L580.5905 82.5571 L585.2333 85.5785 L444.4062 154.2086 L445.7221 156.9046 L586.5476 88.2753 L586.0665 93.7938 L596.8125 81.6042 Z" clip-path="url(#clipPath2)"/>
    </g>
    <g text-rendering="geometricPrecision" stroke-miterlimit="1.45" shape-rendering="geometricPrecision" transform="matrix(1,0,0,1,149,182)" stroke-linecap="butt">
      <path fill="none" d="M362.8182 213.6817 L348.6745 221.6829 L354.1736 222.3502 L354.1736 222.3502 L264.4539 337.6714 L266.8218 339.5135 L356.5414 224.1923 L358.5403 229.3585 L362.8182 213.6817 Z" clip-path="url(#clipPath2)"/>
    </g>
    <g text-rendering="geometricPrecision" stroke-miterlimit="1.45" shape-rendering="geometricPrecision" transform="matrix(1,0,0,1,149,182)" stroke-linecap="butt">
      <path fill="none" d="M398.1441 213.6816 L398.4307 229.9291 L401.64 225.4141 L451.4209 339.194 L454.1691 337.9909 L404.3885 224.2116 L404.3885 224.2116 L409.8826 224.9187 L398.1441 213.6816 Z" clip-path="url(#clipPath2)"/>
    </g>
    <g text-rendering="geometricPrecision" stroke-miterlimit="1.45" shape-rendering="geometricPrecision" transform="matrix(1,0,0,1,149,182)" stroke-linecap="butt">
      <path fill="none" d="M656.4479 81.6042 L650.1979 96.6042 L654.9479 93.7542 L654.9479 216.1771 L657.9479 216.1771 L657.9479 93.7542 L662.6979 96.6042 L656.4479 81.6042 Z" clip-path="url(#clipPath2)"/>
    </g>
    <g text-rendering="geometricPrecision" stroke-miterlimit="1.45" shape-rendering="geometricPrecision" transform="matrix(1,0,0,1,149,182)" stroke-linecap="butt">
      <path fill="none" d="M650.188 274.3021 L616.6053 430.2148" clip-path="url(#clipPath2)"/>
      <path d="M614.9208 438.0354 L622.3355 427.3573 L616.8159 429.2372 L612.5597 425.2516 Z" clip-path="url(#clipPath2)" stroke="none"/>
      <rect x="585.8503" y="347.1023" clip-path="url(#clipPath2)" fill="white" width="93.4082" height="18.1328" stroke="none"/>
      <text x="587.8503" xml:space="preserve" y="360.7039" clip-path="url(#clipPath2)" font-family="sans-serif" stroke="none">hasDistribution</text>
    </g>
    <g text-rendering="geometricPrecision" stroke-miterlimit="1.45" shape-rendering="geometricPrecision" transform="matrix(1,0,0,1,149,182)" stroke-linecap="butt">
      <path fill="none" d="M706.7647 81.6042 L716.6277 94.5186 L716.5356 88.98 L817.0235 147.0208 L818.5222 144.4219 L718.0361 86.3822 L722.8797 83.6944 L706.7647 81.6042 Z" clip-path="url(#clipPath2)"/>
    </g>
    <g text-rendering="geometricPrecision" stroke-miterlimit="1.45" shape-rendering="geometricPrecision" transform="matrix(1,0,0,1,149,182)" stroke-linecap="butt">
      <path fill="none" d="M911.0465 203.8464 L1004.0604 266.775" clip-path="url(#clipPath2)"/>
      <path d="M1010.6864 271.2578 L1003.5491 260.3923 L1003.2321 266.2146 L997.9456 268.6748 Z" clip-path="url(#clipPath2)" stroke="none"/>
      <rect x="888.5862" y="228.4857" clip-path="url(#clipPath2)" fill="white" width="144.5605" height="18.1328" stroke="none"/>
      <text x="890.5862" xml:space="preserve" y="242.0872" clip-path="url(#clipPath2)" font-family="sans-serif" stroke="none">hasEnvironmentVariable</text>
    </g>
    <g text-rendering="geometricPrecision" stroke-miterlimit="1.45" shape-rendering="geometricPrecision" transform="matrix(1,0,0,1,149,182)" stroke-linecap="butt">
      <path fill="none" d="M881.5123 3.2055 L763.4899 28.2729 L763.4899 28.2729 L765.2909 23.0345 L751.9167 32.2645 L767.8879 35.2617 L764.1132 31.2075 L882.1336 6.1405 L881.5123 3.2055 Z" clip-path="url(#clipPath2)"/>
    </g>
    <g text-rendering="geometricPrecision" stroke-miterlimit="1.45" shape-rendering="geometricPrecision" transform="matrix(1,0,0,1,149,182)" stroke-linecap="butt">
      <path fill="none" d="M383.9287 30.6458 L383.9287 143.4066 L379.1787 140.5566 L385.4287 155.5566 L391.6787 140.5566 L386.9287 143.4066 L386.9287 30.6458 Z" clip-path="url(#clipPath2)"/>
    </g>
    <g text-rendering="geometricPrecision" stroke-miterlimit="1.45" shape-rendering="geometricPrecision" transform="matrix(1,0,0,1,149,182)" stroke-linecap="butt">
      <path fill="none" d="M385.4287 -27.4792 L385.4287 -86.6339" clip-path="url(#clipPath2)"/>
      <path d="M385.4287 -94.6339 L380.4287 -82.6339 L385.4287 -85.6339 L390.4287 -82.6339 Z" clip-path="url(#clipPath2)" stroke="none"/>
      <rect x="330.5977" y="-70.1237" clip-path="url(#clipPath2)" fill="white" width="109.6621" height="18.1328" stroke="none"/>
      <text x="332.5977" xml:space="preserve" y="-56.5221" clip-path="url(#clipPath2)" font-family="sans-serif" stroke="none">hasVirtualAddress</text>
      <path fill="none" d="M670.9062 274.3376 L750.2917 502.5527" clip-path="url(#clipPath2)"/>
      <path d="M752.92 510.1086 L753.7 497.132 L749.9631 501.6082 L744.2551 500.4175 Z" clip-path="url(#clipPath2)" stroke="none"/>
      <rect x="665.1983" y="376.0595" clip-path="url(#clipPath2)" fill="white" width="93.4082" height="32.2656" stroke="none"/>
      <text x="667.1984" xml:space="preserve" y="389.6611" clip-path="url(#clipPath2)" font-family="sans-serif" stroke="none">hasDistribution</text>
      <text x="689.9796" xml:space="preserve" y="403.7939" clip-path="url(#clipPath2)" font-family="sans-serif" stroke="none">Version</text>
      <path fill="none" d="M263.7 396.7174 L300.9871 449.1372" clip-path="url(#clipPath2)"/>
      <path d="M305.6242 455.6562 L302.743 442.9796 L300.4075 448.3224 L294.5942 448.7759 Z" clip-path="url(#clipPath2)" stroke="none"/>
      <rect x="260.8184" y="417.1204" clip-path="url(#clipPath2)" fill="white" width="47.6875" height="18.1328" stroke="none"/>
      <text x="262.8184" xml:space="preserve" y="430.722" clip-path="url(#clipPath2)" font-family="sans-serif" stroke="none">hasSize</text>
      <path fill="none" d="M430.949 396.7174 L366.9813 450.5075" clip-path="url(#clipPath2)"/>
      <path d="M360.8583 455.6562 L373.2607 451.76 L367.7466 449.8639 L366.8248 444.1063 Z" clip-path="url(#clipPath2)" stroke="none"/>
      <rect x="372.0599" y="417.1204" clip-path="url(#clipPath2)" fill="white" width="47.6875" height="18.1328" stroke="none"/>
      <text x="374.0599" xml:space="preserve" y="430.722" clip-path="url(#clipPath2)" font-family="sans-serif" stroke="none">hasSize</text>
      <path fill="none" d="M105.9754 213.6816 L105.9754 484.7188 L222.8281 484.7188" clip-path="url(#clipPath2)"/>
      <path d="M230.8281 484.7188 L218.8281 479.7188 L221.8281 484.7188 L218.8281 489.7188 Z" clip-path="url(#clipPath2)" stroke="none"/>
      <rect x="62.1631" y="302.3323" clip-path="url(#clipPath2)" fill="white" width="83.7695" height="18.1328" stroke="none"/>
      <text x="64.1631" xml:space="preserve" y="315.9338" clip-path="url(#clipPath2)" font-family="sans-serif" stroke="none">hasFrequency</text>
      <path fill="none" d="M304.1584 513.7812 L261.7628 569.4365" clip-path="url(#clipPath2)"/>
      <path d="M256.9151 575.8004 L268.1642 569.2844 L262.3688 568.6411 L260.2093 563.2247 Z" clip-path="url(#clipPath2)" stroke="none"/>
      <rect x="228.0321" y="535.7357" clip-path="url(#clipPath2)" fill="white" width="104.9922" height="18.1328" stroke="none"/>
      <text x="230.0321" xml:space="preserve" y="549.3372" clip-path="url(#clipPath2)" font-family="sans-serif" stroke="none">hasNumericValue</text>
      <path fill="none" d="M345.3416 513.7812 L381.5981 569.1091" clip-path="url(#clipPath2)"/>
      <path d="M385.9829 575.8004 L383.5877 563.0229 L381.05 568.2727 L375.2236 568.504 Z" clip-path="url(#clipPath2)" stroke="none"/>
      <rect x="341.7146" y="535.7357" clip-path="url(#clipPath2)" fill="white" width="47.9102" height="18.1328" stroke="none"/>
      <text x="343.7146" xml:space="preserve" y="549.3372" clip-path="url(#clipPath2)" font-family="sans-serif" stroke="none">hasUnit</text>
      <path fill="none" d="M136.704 213.6816 L184.7973 259.1672" clip-path="url(#clipPath2)"/>
      <path d="M190.6095 264.6643 L185.3269 252.786 L184.0708 258.4801 L178.4555 260.0513 Z" clip-path="url(#clipPath2)" stroke="none"/>
      <rect x="134.8525" y="230.0921" clip-path="url(#clipPath2)" fill="white" width="57.5781" height="18.1328" stroke="none"/>
      <text x="136.8525" xml:space="preserve" y="243.6937" clip-path="url(#clipPath2)" font-family="sans-serif" stroke="none">hasCores</text>
      <path fill="none" d="M1022.9551 329.3828 L968.9055 380.5693" clip-path="url(#clipPath2)"/>
      <path d="M963.0969 386.0703 L975.2479 381.4492 L969.6316 379.8817 L968.3718 374.1885 Z" clip-path="url(#clipPath2)" stroke="none"/>
      <rect x="964.2302" y="348.6693" clip-path="url(#clipPath2)" fill="white" width="57.5723" height="18.1328" stroke="none"/>
      <text x="966.2302" xml:space="preserve" y="362.2709" clip-path="url(#clipPath2)" font-family="sans-serif" stroke="none">hasName</text>
      <path fill="none" d="M1073.4965 329.3828 L1107.7084 379.4644" clip-path="url(#clipPath2)"/>
      <path d="M1112.2209 386.0703 L1109.5807 373.3412 L1107.1443 378.6387 L1101.3235 378.9819 Z" clip-path="url(#clipPath2)" stroke="none"/>
      <rect x="1047.6023" y="348.6693" clip-path="url(#clipPath2)" fill="white" width="90.5254" height="18.1328" stroke="none"/>
      <text x="1049.6023" xml:space="preserve" y="362.2709" clip-path="url(#clipPath2)" font-family="sans-serif" stroke="none">hasStringValue</text>
      <path fill="none" stroke-dasharray="6,2" d="M608.6609 496.1604 L608.6609 543.2708" clip-path="url(#clipPath2)"/>
      <path fill="none" d="M950.8186 13.4583 L904.0823 64.7662" clip-path="url(#clipPath2)"/>
      <path d="M898.695 70.6804 L910.4722 65.1762 L904.7557 64.0269 L903.0795 58.4421 Z" clip-path="url(#clipPath2)" stroke="none"/>
      <rect x="895.9817" y="32.9909" clip-path="url(#clipPath2)" fill="white" width="57.5723" height="18.1328" stroke="none"/>
      <text x="897.9817" xml:space="preserve" y="46.5924" clip-path="url(#clipPath2)" font-family="sans-serif" stroke="none">hasName</text>
      <path fill="none" d="M999.4906 13.4583 L1038.3427 64.3229" clip-path="url(#clipPath2)"/>
      <path d="M1043.1987 70.6804 L1039.8881 58.109 L1037.7356 63.5282 L1031.9412 64.1792 Z" clip-path="url(#clipPath2)" stroke="none"/>
      <rect x="987.3169" y="32.9909" clip-path="url(#clipPath2)" fill="white" width="68.0371" height="18.1328" stroke="none"/>
      <text x="989.3169" xml:space="preserve" y="46.5924" clip-path="url(#clipPath2)" font-family="sans-serif" stroke="none">hasVersion</text>
      <path fill="none" d="M977.2917 -44.6667 L977.2917 -100.0625" clip-path="url(#clipPath2)"/>
      <path d="M977.2917 -108.0625 L972.2917 -96.0625 L977.2917 -99.0625 L982.2917 -96.0625 Z" clip-path="url(#clipPath2)" stroke="none"/>
      <rect x="935.1374" y="-85.431" clip-path="url(#clipPath2)" fill="white" width="84.3086" height="18.1328" stroke="none"/>
      <text x="937.1374" xml:space="preserve" y="-71.8294" clip-path="url(#clipPath2)" font-family="sans-serif" stroke="none">acquiredFrom</text>
      <path fill="none" d="M83.1245 213.6816 L-10.1441 332.3036" clip-path="url(#clipPath2)"/>
      <path d="M-15.0889 338.5924 L-3.7412 332.2496 L-9.526 331.5175 L-11.6023 326.0687 Z" clip-path="url(#clipPath2)" stroke="none"/>
      <rect x="-6.2088" y="260.0042" clip-path="url(#clipPath2)" fill="white" width="80.4531" height="32.2656" stroke="none"/>
      <text x="-4.2088" xml:space="preserve" y="273.6058" clip-path="url(#clipPath2)" font-family="sans-serif" stroke="none">hasProcessor</text>
      <text x="19.97" xml:space="preserve" y="287.7386" clip-path="url(#clipPath2)" font-family="sans-serif" stroke="none">Type</text>
      <path fill="none" stroke-dasharray="6,2" d="M-37.9397 455.6562 L-37.9397 396.7174" clip-path="url(#clipPath2)"/>
      <path fill="none" d="M72.1268 155.5566 L11.2219 103.2635" clip-path="url(#clipPath2)"/>
      <path d="M5.1522 98.0521 L10.9995 109.6628 L11.9806 103.9149 L17.5138 102.0757 Z" clip-path="url(#clipPath2)" stroke="none"/>
      <rect x="-9.008" y="117.738" clip-path="url(#clipPath2)" fill="white" width="95.2949" height="18.1328" stroke="none"/>
      <text x="-7.008" xml:space="preserve" y="131.3395" clip-path="url(#clipPath2)" font-family="sans-serif" stroke="none">hasArchitecture</text>
      <path fill="none" stroke-dasharray="6,2" d="M-76.1463 161.8066 L-76.1463 98.0288" clip-path="url(#clipPath2)"/>
      <path fill="none" d="M686.9084 274.3021 L852.7294 432.5129" clip-path="url(#clipPath2)"/>
      <path d="M858.5175 438.0354 L853.2869 426.1341 L852.0059 431.8226 L846.3838 433.3693 Z" clip-path="url(#clipPath2)" stroke="none"/>
      <rect x="742.1016" y="347.1023" clip-path="url(#clipPath2)" fill="white" width="61.2227" height="18.1328" stroke="none"/>
      <text x="744.1016" xml:space="preserve" y="360.7039" clip-path="url(#clipPath2)" font-family="sans-serif" stroke="none">hasKernel</text>
      <path fill="none" stroke-dasharray="6,2" d="M888.978 537.4784 L888.978 496.1604" clip-path="url(#clipPath2)"/>
      <path fill="none" d="M719.7599 274.3021 L830.9431 325.3392" clip-path="url(#clipPath2)"/>
      <path d="M838.2137 328.6766 L829.3937 319.1263 L830.0343 324.922 L825.2219 328.2145 Z" clip-path="url(#clipPath2)" stroke="none"/>
      <rect x="728.8508" y="293.5238" clip-path="url(#clipPath2)" fill="white" width="105.0684" height="18.1328" stroke="none"/>
      <text x="730.8508" xml:space="preserve" y="307.1253" clip-path="url(#clipPath2)" font-family="sans-serif" stroke="none">hasKernelVersion</text>
    </g>
  </g>
</svg>
